<?xml version="1.0" encoding="iso-8859-1"?>
<!-- Generator: Adobe Illustrator 16.0.0, SVG Export Plug-In . SVG Version: 6.00 Build 0)  -->
<!DOCTYPE svg PUBLIC "-//W3C//DTD SVG 1.1//EN" "http://www.w3.org/Graphics/SVG/1.1/DTD/svg11.dtd">
<svg version="1.1" id="Capa_1" xmlns="http://www.w3.org/2000/svg" xmlns:xlink="http://www.w3.org/1999/xlink" x="0px" y="0px"
	 width="250.5px" height="131.5px" viewBox="0 0 131.549 131.549" style="enable-background: new 0 0 131.549 131.549"
	 xml:space="preserve">
<g>
	<g transform="matrix(0.9,0,0,1,3.1,0)">
		<path d="M -24.1 90.4 h 3.7 l 23.4 30.3 c 1.4 1.8 3.5 2.8 5.8 2.8 c 0.3 0 0.5 0 0.8 0 c 2.5 -0.3 4.7 -1.9 5.8 -4.2 L 59.7 24.6 h 33.1 c 4 0 7.3 -3.3 7.3 -7.3 c 0 -4 -3.3 -7.3 -7.3 -7.3 H 55 c -2.8 0 -5.4 1.6 -6.6 4.2 l -41.2 88.1 L -11 78.6 c -1.4 -1.8 -3.5 -2.8 -5.8 -2.8 H -24.1 C -28.2 75.8 -31.4 79 -31.4 83.1 S -28.2 90.4 -24.1 90.4 z"/>
	</g>
</g>
<g>
</g>
<g>
</g>
<g>
</g>
<g>
</g>
<g>
</g>
<g>
</g>
<g>
</g>
<g>
</g>
<g>
</g>
<g>
</g>
<g>
</g>
<g>
</g>
<g>
</g>
<g>
</g>
<g>
</g>
</svg>
