<svg width="92" height="85" viewBox="0 0 92 85" fill="none" xmlns="http://www.w3.org/2000/svg">
<path d="M5 36.5C2.51472 36.5 0.5 38.5147 0.5 41C0.5 43.4853 2.51472 45.5 5 45.5V36.5ZM29.5873 41L33.9553 39.9182C33.458 37.9102 31.6558 36.5 29.5873 36.5V41ZM39.2465 80L34.8785 81.0818C35.3609 83.0297 37.0748 84.4227 39.0801 84.4969C41.0854 84.5712 42.8975 83.3087 43.5226 81.4018L39.2465 80ZM63.8338 5V0.5C61.8886 0.5 60.1637 1.7498 59.5577 3.59817L63.8338 5ZM87 9.5C89.4853 9.5 91.5 7.48528 91.5 5C91.5 2.51472 89.4853 0.5 87 0.5V9.5ZM5 45.5H29.5873V36.5H5V45.5ZM25.2192 42.0818L34.8785 81.0818L43.6146 78.9182L33.9553 39.9182L25.2192 42.0818ZM43.5226 81.4018L68.1099 6.40183L59.5577 3.59817L34.9705 78.5982L43.5226 81.4018ZM63.8338 9.5H87V0.5H63.8338V9.5Z" fill="black"/>
</svg>
